<?xml version="1.0" standalone="no"?>
<!DOCTYPE svg PUBLIC "-//W3C//DTD SVG 20010904//EN"
 "http://www.w3.org/TR/2001/REC-SVG-20010904/DTD/svg10.dtd">
<svg version="1.0" xmlns="http://www.w3.org/2000/svg"
 width="3802.000000pt" height="1097.000000pt" viewBox="0 0 3802.000000 1097.000000"
 preserveAspectRatio="xMidYMid meet">

<g transform="translate(0.000000,1097.000000) scale(0.100000,-0.100000)"
fill="#000000" stroke="none">
<path d="M20068 8121 c-221 -71 -364 -301 -330 -529 42 -273 305 -457 574
-401 182 38 341 196 379 377 15 76 6 193 -21 265 -49 130 -173 245 -306 287
-85 26 -216 26 -296 1z"/>
<path d="M6535 7904 c-823 -115 -1208 -181 -1746 -299 -460 -101 -1026 -248
-1099 -285 -75 -38 -129 -130 -130 -217 0 -47 139 -619 185 -763 26 -79 105
-139 185 -140 19 0 127 27 240 60 841 248 1777 451 2748 596 124 19 160 36
199 93 18 26 23 48 23 93 0 50 -17 107 -110 366 -61 169 -124 335 -141 369
-33 69 -84 112 -154 132 -49 13 -72 13 -200 -5z"/>
<path d="M10510 7734 c-193 -10 -404 -28 -553 -45 -178 -20 -516 -66 -554 -74
l-23 -5 0 -2021 0 -2021 863 5 c931 5 939 5 1174 62 528 127 927 468 1044 890
31 114 38 373 14 517 -65 388 -282 636 -682 778 l-102 36 87 43 c116 57 194
114 272 198 119 127 180 265 201 454 52 468 -219 857 -733 1055 -113 44 -302
90 -448 110 -113 15 -431 25 -560 18z m470 -814 c148 -42 239 -113 293 -228
26 -56 32 -82 35 -158 9 -191 -70 -324 -232 -394 -96 -41 -180 -50 -466 -50
l-270 0 0 414 0 414 53 7 c219 31 470 29 587 -5z m-15 -1620 c131 -13 185 -25
272 -65 122 -56 191 -142 219 -274 37 -177 -2 -327 -116 -435 -64 -61 -132
-97 -244 -129 -63 -18 -110 -20 -413 -24 l-343 -5 0 471 0 471 263 0 c144 0
307 -5 362 -10z"/>
<path d="M25205 7520 c-478 -138 -1028 -646 -1247 -1152 -46 -106 -82 -241
-92 -340 l-7 -68 236 0 235 0 0 -792 c0 -436 5 -837 10 -891 23 -239 87 -396
209 -518 87 -87 167 -135 296 -178 148 -48 255 -63 518 -68 304 -7 538 14 706
63 l54 15 -6 166 c-11 261 -43 437 -103 554 l-23 46 -87 -23 c-280 -75 -512
-45 -582 75 -50 85 -52 113 -52 858 l0 693 352 2 352 3 38 50 c93 123 178 424
178 631 l0 64 -460 0 -460 0 -2 413 -3 414 -60 -17z"/>
<path d="M22540 6781 c-742 -63 -1162 -390 -1221 -951 -49 -469 221 -835 736
-995 61 -19 164 -50 230 -71 236 -72 340 -141 365 -243 11 -45 10 -58 -4 -96
-70 -182 -385 -239 -823 -149 -104 21 -389 98 -445 119 -14 5 -21 -8 -42 -73
-37 -118 -50 -235 -43 -402 5 -124 35 -321 50 -337 3 -2 94 -17 203 -33 681
-98 1212 -53 1566 132 194 101 327 234 413 412 119 244 134 582 35 801 -97
216 -316 369 -750 524 -353 127 -469 190 -527 289 -35 59 -30 136 14 190 74
92 200 127 453 127 154 -1 189 -4 291 -28 64 -15 156 -41 204 -57 103 -35 90
-42 159 90 77 149 133 354 151 552 l7 77 -79 24 c-244 77 -667 121 -943 98z"/>
<path d="M33358 6760 c-194 -21 -411 -79 -575 -155 -106 -49 -282 -169 -376
-255 -156 -145 -313 -392 -383 -605 -147 -446 -113 -1016 83 -1409 100 -201
250 -382 422 -511 107 -81 285 -173 421 -218 374 -125 857 -125 1230 0 557
186 913 634 995 1252 19 139 19 437 0 570 -76 532 -357 941 -799 1163 -115 58
-320 122 -466 147 -144 25 -416 35 -552 21z m392 -826 c204 -46 367 -198 441
-411 36 -103 51 -195 56 -338 16 -456 -155 -751 -486 -836 -106 -27 -287 -27
-394 0 -234 60 -392 231 -459 496 -20 80 -23 113 -22 300 0 239 12 303 82 450
137 285 440 417 782 339z"/>
<path d="M14050 6750 c-147 -11 -340 -42 -500 -81 -117 -29 -444 -131 -482
-150 -15 -8 -12 -23 33 -157 104 -304 203 -426 358 -439 34 -3 146 7 281 26
345 46 436 54 550 48 296 -17 410 -127 445 -428 l6 -56 -143 -7 c-1063 -50
-1611 -332 -1736 -893 -12 -56 -17 -123 -17 -238 0 -140 3 -169 23 -235 71
-224 200 -369 437 -485 208 -102 374 -136 709 -142 665 -14 1240 110 1576 339
l65 44 0 915 c0 844 -1 922 -18 1019 -87 489 -374 774 -887 879 -188 39 -490
56 -700 41z m690 -2106 c0 -242 -2 -268 -17 -281 -44 -34 -165 -87 -252 -111
-85 -23 -116 -26 -271 -26 -154 -1 -183 2 -245 21 -146 46 -207 128 -207 278
-1 81 31 152 92 209 125 117 352 173 713 175 l187 1 0 -266z"/>
<path d="M17530 6753 c-364 -36 -675 -106 -940 -210 -133 -53 -185 -78 -292
-141 l-78 -46 0 -1393 0 -1393 470 0 470 0 0 1174 0 1174 48 11 c126 28 190
35 342 34 136 0 179 -4 242 -21 199 -54 320 -173 357 -350 8 -37 11 -357 11
-1037 l0 -985 470 0 471 0 -3 1188 -3 1187 -23 75 c-122 400 -512 666 -1067
730 -83 9 -393 11 -475 3z"/>
<path d="M20015 6749 c-82 -12 -211 -47 -246 -65 l-29 -15 2 -1547 3 -1547
473 -3 472 -2 0 1554 0 1554 -62 21 c-135 44 -190 52 -373 56 -99 2 -207 0
-240 -6z"/>
<path d="M27965 6754 c-471 -50 -876 -175 -1167 -362 l-58 -37 0 -1392 0
-1393 470 0 470 0 0 1174 0 1174 48 11 c124 28 189 35 337 35 119 0 178 -4
229 -17 205 -51 330 -177 367 -371 5 -28 9 -464 9 -1027 l0 -979 465 0 465 0
0 983 c0 1047 -2 1085 -50 1247 -11 37 -20 70 -20 73 0 9 142 52 240 73 129
28 359 26 463 -4 174 -50 267 -126 329 -273 l23 -54 5 -1020 5 -1020 465 0
465 0 0 1175 0 1175 -22 87 c-95 372 -389 621 -848 718 -143 30 -409 38 -571
16 -284 -37 -626 -154 -848 -289 l-58 -35 -87 64 c-97 73 -266 159 -388 199
-168 54 -252 66 -483 70 -118 1 -233 1 -255 -1z"/>
<path d="M7330 6369 c-1498 -213 -2699 -521 -3910 -1004 -489 -195 -517 -210
-565 -309 -40 -82 -36 -131 49 -564 82 -420 89 -442 161 -477 64 -30 119 -17
315 69 1248 555 2706 981 4220 1236 164 27 253 47 270 58 42 30 72 99 67 158
-5 67 -212 694 -246 745 -46 68 -122 110 -196 108 -16 -1 -91 -10 -165 -20z"/>
<path d="M7290 4709 c-936 -211 -1719 -424 -2485 -676 -237 -78 -262 -89 -309
-145 -39 -45 -56 -91 -56 -150 0 -61 197 -764 227 -809 36 -54 109 -89 188
-89 51 0 101 14 301 84 814 284 1722 557 2509 752 188 47 211 58 243 119 30
59 19 123 -74 415 -47 151 -95 303 -106 337 -10 34 -33 82 -51 105 -39 51
-124 98 -176 97 -20 0 -115 -18 -211 -40z"/>
</g>
</svg>
