<?xml version="1.0" encoding="UTF-8"?>
<svg xmlns="http://www.w3.org/2000/svg" xmlns:xlink="http://www.w3.org/1999/xlink" width="442.85pt" height="122.6pt" viewBox="0 0 442.85 122.6" version="1.1">
<defs>
<clipPath id="clip1">
  <path d="M 377 40 L 442.851563 40 L 442.851563 81 L 377 81 Z M 377 40 "/>
</clipPath>
<clipPath id="clip2">
  <path d="M 322 70 L 371 70 L 371 122.601563 L 322 122.601563 Z M 322 70 "/>
</clipPath>
<clipPath id="clip3">
  <path d="M 46 70 L 88 70 L 88 122.601563 L 46 122.601563 Z M 46 70 "/>
</clipPath>
<clipPath id="clip4">
  <path d="M 163 71 L 200 71 L 200 122.601563 L 163 122.601563 Z M 163 71 "/>
</clipPath>
</defs>
<g id="surface1">
<path style=" stroke:none;fill-rule:nonzero;fill:rgb(7.099915%,28.999329%,54.899597%);fill-opacity:1;" d="M 316.289063 80.894531 C 315.03125 75.59375 311.941406 72.074219 306.476563 70.917969 C 305.523438 70.714844 304.539063 70.628906 303.5625 70.582031 C 296.828125 70.234375 291.503906 72.785156 287.648438 78.355469 C 287.289063 78.871094 287.140625 79.535156 286.535156 79.933594 C 285.988281 79.464844 285.984375 78.765625 285.734375 78.191406 C 284.222656 74.683594 281.695313 72.242188 278.019531 71.207031 C 271.042969 69.246094 263.042969 71.375 258.464844 78.035156 C 258.105469 78.550781 257.761719 79.074219 257.40625 79.59375 C 257.199219 76.898438 257.761719 74.285156 257.378906 71.585938 C 253.976563 71.898438 250.726563 72.539063 247.601563 73.707031 C 245.226563 74.59375 245.6875 74.253906 245.683594 76.433594 C 245.667969 90.738281 245.675781 105.042969 245.675781 119.347656 C 245.675781 119.675781 245.699219 120.003906 245.671875 120.328125 C 245.613281 121.070313 245.90625 121.363281 246.679688 121.355469 C 250.203125 121.332031 253.730469 121.332031 257.261719 121.355469 C 258.039063 121.359375 258.273438 121.019531 258.257813 120.292969 C 258.226563 118.921875 258.25 117.546875 258.25 116.175781 C 258.261719 109.582031 258.1875 102.980469 258.3125 96.386719 C 258.398438 92.105469 259.714844 88.171875 262.519531 84.835938 C 263.808594 83.308594 265.355469 82.125 267.3125 81.589844 C 270.585938 80.691406 274.058594 81.519531 274.835938 86.117188 C 275.085938 87.609375 275.144531 89.101563 275.144531 90.601563 C 275.152344 100.074219 275.148438 109.542969 275.148438 119.015625 C 275.148438 119.472656 275.167969 119.929688 275.148438 120.386719 C 275.117188 121.019531 275.332031 121.355469 276.03125 121.351563 C 279.558594 121.332031 283.085938 121.339844 286.613281 121.34375 C 287.167969 121.347656 287.464844 121.128906 287.460938 120.546875 C 287.453125 120.023438 287.46875 119.503906 287.46875 118.980469 C 287.472656 111.992188 287.464844 105 287.472656 98.011719 C 287.480469 93.820313 288.273438 89.832031 290.660156 86.292969 C 291.964844 84.363281 293.585938 82.773438 295.769531 81.863281 C 300.175781 80.035156 303.652344 82.097656 304.183594 86.835938 C 304.199219 86.964844 304.203125 87.09375 304.214844 87.226563 C 304.644531 91.398438 304.402344 95.578125 304.429688 99.757813 C 304.46875 106.484375 304.433594 113.210938 304.445313 119.9375 C 304.445313 121.3125 304.480469 121.332031 305.851563 121.34375 C 308.265625 121.359375 310.683594 121.347656 313.101563 121.347656 C 314.078125 121.347656 315.058594 121.332031 316.039063 121.351563 C 316.691406 121.359375 317.007813 121.085938 316.976563 120.421875 C 316.960938 120.097656 316.976563 119.769531 316.976563 119.445313 C 316.976563 108.730469 316.992188 98.019531 316.964844 87.304688 C 316.960938 85.152344 316.789063 83 316.289063 80.894531 "/>
<path style=" stroke:none;fill-rule:nonzero;fill:rgb(100%,81.599426%,0%);fill-opacity:1;" d="M 343.371094 42.535156 C 344.402344 46.644531 345.40625 50.765625 346.480469 54.863281 C 346.996094 56.832031 348.304688 57.769531 350.308594 57.871094 C 351.449219 57.929688 352.5 57.65625 353.550781 57.257813 C 366.996094 52.183594 380.773438 48.21875 394.746094 44.878906 C 409.210938 41.417969 423.78125 38.480469 438.480469 36.207031 C 441.339844 35.765625 441.96875 34.703125 440.941406 32.046875 C 439.652344 28.699219 438.289063 25.378906 437.035156 22.015625 C 436.164063 19.675781 434.503906 18.648438 432.085938 18.664063 C 430.777344 18.671875 429.472656 18.664063 428.164063 18.664063 C 428.164063 18.683594 428.164063 18.699219 428.164063 18.714844 C 426.925781 18.714844 425.679688 18.664063 424.441406 18.722656 C 415.570313 19.128906 406.757813 20.101563 397.980469 21.429688 C 384.289063 23.5 370.808594 26.527344 357.660156 30.910156 C 354.007813 32.125 350.382813 33.429688 346.789063 34.804688 C 344.03125 35.859375 341.976563 38.09375 343.199219 41.773438 C 343.277344 42.019531 343.308594 42.28125 343.371094 42.535156 "/>
<path style=" stroke:none;fill-rule:nonzero;fill:rgb(7.099915%,28.999329%,54.899597%);fill-opacity:1;" d="M 25.699219 110.304688 C 24.394531 110.933594 23.011719 111.328125 21.582031 111.480469 C 18.851563 111.765625 16.113281 111.582031 13.375 111.453125 C 12.480469 111.410156 12.125 111.054688 12.144531 110.125 C 12.191406 107.453125 12.160156 104.78125 12.160156 102.105469 C 12.160156 99.625 12.195313 97.148438 12.136719 94.671875 C 12.117188 93.699219 12.367188 93.234375 13.417969 93.222656 C 16.742188 93.179688 20.070313 93.054688 23.339844 93.847656 C 23.84375 93.96875 24.351563 94.097656 24.84375 94.269531 C 28.578125 95.558594 30.488281 98.003906 30.695313 101.726563 C 30.902344 105.511719 29.050781 108.683594 25.699219 110.304688 M 13.34375 67.09375 C 16.339844 66.96875 19.335938 66.695313 22.328125 67.164063 C 22.652344 67.21875 22.980469 67.230469 23.296875 67.300781 C 26.996094 68.070313 29.035156 70.039063 29.597656 73.367188 C 30.199219 76.921875 28.671875 80.28125 25.644531 82.070313 C 23.386719 83.410156 20.863281 83.761719 18.320313 83.933594 C 16.824219 84.039063 15.316406 83.992188 13.816406 83.949219 C 12.1875 83.90625 12.171875 83.875 12.160156 82.300781 C 12.148438 80.015625 12.15625 77.730469 12.15625 75.445313 C 12.160156 73.09375 12.195313 70.742188 12.140625 68.394531 C 12.117188 67.472656 12.414063 67.128906 13.34375 67.09375 M 33.652344 87.632813 C 33.425781 87.5625 33.136719 87.613281 32.960938 87.207031 C 33.417969 86.695313 34.136719 86.519531 34.71875 86.152344 C 40.488281 82.53125 43.050781 77.328125 42.316406 70.566406 C 41.628906 64.273438 37.875 60.488281 32.085938 58.472656 C 29.101563 57.433594 26.007813 56.972656 22.859375 56.96875 C 15.808594 56.949219 8.757813 56.90625 1.710938 57.320313 C 0.0234375 57.417969 0.00390625 57.40625 0.00390625 59.074219 C 0 79.382813 0 99.691406 0.00390625 119.996094 C 0.00390625 121.617188 0.0234375 121.628906 1.582031 121.640625 C 7.0625 121.6875 12.546875 121.722656 18.03125 121.773438 C 21.109375 121.804688 24.160156 121.578125 27.171875 120.910156 C 36.820313 118.761719 42.988281 112.460938 43.664063 103.085938 C 44.140625 96.46875 40.851563 89.824219 33.652344 87.632813 "/>
<g clip-path="url(#clip1)" clip-rule="nonzero">
<path style=" stroke:none;fill-rule:nonzero;fill:rgb(92.89856%,10.598755%,17.298889%);fill-opacity:1;" d="M 442.457031 56.136719 C 441.101563 51.84375 439.585938 47.601563 437.839844 43.449219 C 436.761719 40.890625 435.472656 40.199219 432.746094 40.714844 C 415.363281 43.992188 398.171875 48.089844 381.097656 52.695313 C 377.386719 53.699219 376.28125 55.921875 377.589844 59.496094 C 379.113281 63.664063 380.628906 67.832031 382.117188 72.007813 C 382.707031 73.667969 383.179688 75.367188 383.761719 77.027344 C 384.574219 79.347656 386.203125 80.582031 388.378906 80.605469 C 389.105469 80.625 389.792969 80.46875 390.480469 80.21875 C 407.007813 74.132813 423.472656 67.875 439.878906 61.46875 C 442.746094 60.347656 443.382813 59.058594 442.457031 56.136719 "/>
</g>
<g clip-path="url(#clip2)" clip-rule="nonzero">
<path style=" stroke:none;fill-rule:nonzero;fill:rgb(7.099915%,28.999329%,54.899597%);fill-opacity:1;" d="M 357.367188 96.902344 C 357.300781 99.535156 356.980469 102.703125 355.5625 105.652344 C 353.214844 110.539063 348.734375 112.726563 343.007813 111.144531 C 340.3125 110.402344 338.542969 108.542969 337.410156 106.050781 C 335.859375 102.636719 335.597656 99.003906 335.699219 95.335938 C 335.761719 92.980469 336.15625 90.667969 337.089844 88.472656 C 339.316406 83.238281 344.226563 80.730469 349.644531 82.058594 C 352.757813 82.820313 354.726563 84.8125 355.933594 87.695313 C 356.390625 88.785156 356.707031 89.914063 356.898438 91.070313 C 357.191406 92.804688 357.382813 94.554688 357.367188 96.902344 M 356.261719 72.09375 C 354.203125 71.421875 352.078125 71.105469 349.925781 70.933594 C 339.308594 70.085938 329.355469 74.964844 325 85.714844 C 321.699219 93.859375 321.871094 102.183594 324.863281 110.382813 C 327.054688 116.394531 331.523438 120.066406 337.683594 121.691406 C 340.09375 122.328125 342.550781 122.617188 344.914063 122.554688 C 355.632813 122.882813 365.027344 116.777344 368.632813 106.046875 C 371.125 98.617188 370.929688 91.117188 368.339844 83.757813 C 366.285156 77.925781 362.179688 74.023438 356.261719 72.09375 "/>
</g>
<g clip-path="url(#clip3)" clip-rule="nonzero">
<path style=" stroke:none;fill-rule:nonzero;fill:rgb(7.099915%,28.999329%,54.899597%);fill-opacity:1;" d="M 74.789063 100.605469 C 74.617188 105.34375 72.914063 109.230469 68.65625 111.6875 C 67.398438 112.414063 66.011719 112.773438 64.535156 112.726563 C 61.65625 112.75 59.714844 111.570313 58.953125 109.335938 C 58.117188 106.878906 58.976563 104.191406 61.128906 102.535156 C 62.390625 101.558594 63.851563 100.996094 65.367188 100.59375 C 68.09375 99.875 70.890625 99.679688 73.703125 99.644531 C 74.394531 99.636719 74.816406 99.78125 74.789063 100.605469 M 87.714844 119.429688 C 87.601563 110.027344 87.492188 100.625 87.367188 91.222656 C 87.332031 88.550781 87.429688 85.875 86.988281 83.214844 C 86.09375 77.859375 83.289063 74.105469 78.085938 72.304688 C 77.164063 71.984375 76.21875 71.710938 75.265625 71.519531 C 69.351563 70.308594 63.453125 70.625 57.5625 71.730469 C 55.253906 72.167969 52.992188 72.789063 50.757813 73.515625 C 50.117188 73.722656 49.816406 74 49.90625 74.777344 C 50.28125 77.949219 50.570313 81.128906 50.910156 84.523438 C 52.128906 83.972656 53.058594 83.511719 54.019531 83.128906 C 58.570313 81.320313 63.25 80.324219 68.175781 80.921875 C 72.40625 81.429688 74.621094 83.804688 74.773438 88.023438 C 74.796875 88.675781 74.734375 89.335938 74.792969 89.980469 C 74.875 90.886719 74.574219 91.21875 73.609375 91.273438 C 71.136719 91.410156 68.65625 91.496094 66.199219 91.910156 C 62.050781 92.605469 58.050781 93.730469 54.445313 95.976563 C 50.027344 98.726563 47.289063 102.585938 46.765625 107.847656 C 46.105469 114.503906 49.121094 120.816406 56.886719 122.261719 C 58.902344 122.636719 60.925781 122.695313 62.929688 122.453125 C 68.121094 121.8125 72.335938 119.488281 75.21875 115 C 75.402344 114.714844 75.417969 114.222656 76.046875 114.230469 C 75.953125 115.863281 75.855469 117.480469 75.769531 119.097656 C 75.738281 119.683594 75.734375 120.269531 75.71875 120.855469 C 75.707031 121.414063 75.964844 121.699219 76.535156 121.695313 C 79.996094 121.675781 83.460938 121.65625 86.921875 121.640625 C 87.492188 121.636719 87.742188 121.371094 87.71875 120.800781 C 87.703125 120.34375 87.71875 119.886719 87.714844 119.429688 "/>
</g>
<path style=" stroke:none;fill-rule:nonzero;fill:rgb(7.099915%,28.999329%,54.899597%);fill-opacity:1;" d="M 136.824219 119.347656 C 136.824219 108.441406 136.824219 97.53125 136.816406 86.621094 C 136.816406 85.644531 136.824219 84.65625 136.714844 83.6875 C 136.0625 77.925781 133.65625 71.9375 124.988281 70.941406 C 117.546875 70.082031 111.339844 72.394531 106.953125 78.761719 C 106.675781 79.167969 106.550781 79.714844 105.738281 80.066406 C 105.851563 77.703125 105.949219 75.554688 106.054688 73.40625 C 106.132813 71.796875 106.128906 71.757813 104.472656 71.945313 C 101.546875 72.277344 98.699219 72.945313 95.902344 73.875 C 94.816406 74.234375 94.421875 74.777344 94.425781 75.964844 C 94.46875 90.597656 94.453125 105.230469 94.453125 119.863281 C 94.453125 120.058594 94.476563 120.257813 94.453125 120.449219 C 94.332031 121.417969 94.792969 121.671875 95.703125 121.660156 C 99.097656 121.621094 102.496094 121.625 105.894531 121.65625 C 106.695313 121.664063 107.140625 121.457031 107.074219 120.570313 C 107.039063 120.117188 107.070313 119.65625 107.070313 119.199219 C 107.070313 112.210938 107.042969 105.21875 107.078125 98.230469 C 107.105469 93.839844 107.988281 89.667969 110.625 86.027344 C 111.996094 84.128906 113.699219 82.59375 115.980469 81.945313 C 120.105469 80.777344 123.757813 81.921875 124.230469 87.351563 C 124.363281 88.84375 124.421875 90.347656 124.421875 91.847656 C 124.4375 101.058594 124.433594 110.269531 124.429688 119.480469 C 124.429688 121.882813 124.324219 121.640625 126.496094 121.640625 C 129.304688 121.648438 132.113281 121.648438 134.921875 121.640625 C 136.871094 121.640625 136.828125 121.890625 136.824219 119.742188 C 136.824219 119.609375 136.824219 119.480469 136.824219 119.347656 "/>
<path style=" stroke:none;fill-rule:nonzero;fill:rgb(7.099915%,28.999329%,54.899597%);fill-opacity:1;" d="M 239.925781 108.242188 C 237.066406 109.960938 234.328125 110.644531 231.382813 110.398438 C 228.746094 110.179688 227.074219 108.738281 226.371094 106.191406 C 226.136719 105.355469 226.140625 104.515625 226.136719 103.667969 C 226.121094 99.03125 226.113281 94.398438 226.105469 89.761719 C 226.101563 87.410156 226.089844 85.058594 226.109375 82.707031 C 226.121094 81.359375 226.144531 81.355469 227.539063 81.324219 C 227.996094 81.3125 228.453125 81.324219 228.910156 81.324219 C 231.851563 81.324219 234.789063 81.3125 237.726563 81.328125 C 238.398438 81.332031 238.863281 81.214844 238.855469 80.390625 C 238.839844 77.515625 238.847656 74.644531 238.851563 71.769531 C 238.855469 71.109375 238.515625 70.839844 237.878906 70.859375 C 237.488281 70.875 237.09375 70.859375 236.703125 70.859375 C 233.632813 70.859375 230.5625 70.871094 227.496094 70.851563 C 226.140625 70.84375 226.136719 70.816406 226.105469 69.429688 C 226.097656 69.035156 226.105469 68.644531 226.105469 68.253906 C 226.105469 62.703125 226.109375 57.152344 226.101563 51.601563 C 226.097656 49.867188 226.074219 49.828125 224.34375 50.042969 C 221.035156 50.449219 217.792969 51.164063 214.652344 52.308594 C 213.113281 52.867188 213.101563 52.867188 213.101563 54.5 C 213.09375 59.265625 213.101563 64.03125 213.09375 68.800781 C 213.09375 70.859375 213.367188 70.867188 211.125 70.859375 C 208.707031 70.855469 206.289063 70.882813 203.875 70.847656 C 203.011719 70.832031 202.550781 71.007813 202.566406 72.019531 C 202.609375 74.761719 202.585938 77.503906 202.539063 80.246094 C 202.523438 81.085938 202.804688 81.390625 203.660156 81.375 C 206.269531 81.332031 208.882813 81.351563 211.496094 81.363281 C 213.070313 81.371094 213.089844 81.386719 213.09375 82.996094 C 213.101563 89.070313 213.089844 95.144531 213.101563 101.214844 C 213.105469 103.175781 213.078125 105.140625 213.222656 107.089844 C 213.738281 113.9375 217.6875 118.875 224.039063 120.683594 C 229.234375 122.167969 234.242188 121.148438 239.210938 119.53125 C 239.84375 119.324219 239.933594 118.898438 239.933594 118.332031 C 239.921875 115.074219 239.925781 111.816406 239.925781 108.242188 "/>
<g clip-path="url(#clip4)" clip-rule="nonzero">
<path style=" stroke:none;fill-rule:nonzero;fill:rgb(7.099915%,28.999329%,54.899597%);fill-opacity:1;" d="M 194.308594 95.34375 C 193.097656 94.558594 191.804688 93.949219 190.460938 93.433594 C 187.894531 92.449219 185.21875 91.859375 182.585938 91.105469 C 181.078125 90.671875 179.574219 90.226563 178.242188 89.363281 C 177.089844 88.621094 176.324219 87.648438 176.28125 86.179688 C 176.199219 83.375 177.847656 81.246094 180.585938 80.710938 C 183.230469 80.195313 185.5 81.496094 186.464844 84.097656 C 186.621094 84.527344 186.796875 84.964844 186.847656 85.410156 C 186.9375 86.195313 187.273438 86.515625 188.101563 86.507813 C 191.496094 86.46875 194.894531 86.457031 198.289063 86.507813 C 199.316406 86.523438 199.484375 86.105469 199.375 85.210938 C 198.820313 80.589844 196.613281 76.953125 192.808594 74.328125 C 187.667969 70.785156 182.015625 70.21875 176.148438 71.933594 C 169.660156 73.828125 165.234375 77.875 164.402344 84.851563 C 163.546875 92.03125 166.277344 97.296875 172.84375 99.949219 C 174.722656 100.707031 176.667969 101.246094 178.632813 101.738281 C 180.84375 102.296875 183.097656 102.71875 185.183594 103.691406 C 186.898438 104.488281 188.132813 105.679688 188.03125 107.730469 C 187.925781 109.808594 186.871094 111.289063 184.941406 112.109375 C 180.839844 113.859375 177.070313 111.992188 175.996094 107.683594 C 175.980469 107.621094 175.976563 107.554688 175.960938 107.492188 C 175.589844 105.933594 175.589844 105.929688 173.921875 105.921875 C 172.484375 105.914063 171.046875 105.921875 169.609375 105.921875 C 167.976563 105.921875 166.34375 105.902344 164.710938 105.929688 C 163.460938 105.949219 163.386719 106.027344 163.484375 107.292969 C 164.070313 114.734375 168.039063 119.398438 174.378906 121.296875 C 179.660156 122.882813 184.980469 122.679688 190.148438 120.777344 C 194.597656 119.136719 197.847656 116.175781 199.335938 111.535156 C 200.027344 109.382813 200.078125 107.167969 199.910156 104.941406 C 199.597656 100.84375 197.792969 97.601563 194.308594 95.34375 "/>
</g>
<path style=" stroke:none;fill-rule:nonzero;fill:rgb(7.099915%,28.999329%,54.899597%);fill-opacity:1;" d="M 359.429688 21.8125 C 360.125 23.753906 361.140625 24.390625 363.152344 24.226563 C 363.796875 24.175781 364.441406 24.035156 365.066406 23.851563 C 371.328125 22.019531 377.652344 20.445313 384.050781 19.175781 C 396.355469 16.730469 408.753906 15.027344 421.308594 14.617188 C 423.851563 14.535156 426.398438 14.445313 428.941406 14.316406 C 430.65625 14.226563 431.128906 13.46875 430.460938 11.871094 C 429.296875 9.105469 428.054688 6.375 426.902344 3.605469 C 426.121094 1.730469 424.785156 0.78125 422.761719 0.515625 C 418.796875 -0.0078125 414.816406 0.0234375 410.152344 0 C 397.152344 0.128906 383.628906 1.644531 370.285156 4.714844 C 366.40625 5.609375 362.542969 6.546875 358.734375 7.695313 C 355.957031 8.535156 355.324219 9.8125 356.242188 12.566406 C 357.273438 15.660156 358.332031 18.742188 359.429688 21.8125 "/>
<path style=" stroke:none;fill-rule:nonzero;fill:rgb(7.499695%,28.999329%,54.899597%);fill-opacity:1;" d="M 156.574219 71.75 C 152.730469 71.511719 148.890625 71.378906 145.054688 71.929688 C 144.40625 72.023438 144.117188 72.265625 144.140625 72.90625 C 144.15625 73.363281 144.140625 73.820313 144.140625 74.277344 C 144.136719 82.5 144.136719 90.722656 144.136719 98.945313 C 144.136719 105.925781 144.136719 112.90625 144.140625 119.890625 C 144.144531 121.625 144.15625 121.636719 145.796875 121.640625 C 149.125 121.648438 152.453125 121.648438 155.78125 121.640625 C 157.453125 121.636719 157.46875 121.625 157.46875 119.914063 C 157.476563 112.214844 157.472656 104.515625 157.472656 96.816406 L 157.472656 74.105469 C 157.472656 73.648438 157.449219 73.191406 157.472656 72.738281 C 157.507813 72.09375 157.234375 71.792969 156.574219 71.75 "/>
<path style=" stroke:none;fill-rule:nonzero;fill:rgb(7.499695%,28.999329%,54.899597%);fill-opacity:1;" d="M 151.179688 49.972656 C 146.929688 49.980469 143.429688 53.457031 143.425781 57.675781 C 143.421875 62.007813 146.988281 65.585938 151.253906 65.53125 C 155.480469 65.476563 158.964844 62.007813 159.039063 57.785156 C 159.109375 53.511719 155.546875 49.96875 151.179688 49.972656 "/>
</g>
</svg>
