<?xml version="1.0" standalone="no"?>
<!DOCTYPE svg PUBLIC "-//W3C//DTD SVG 20010904//EN"
 "http://www.w3.org/TR/2001/REC-SVG-20010904/DTD/svg10.dtd">
<svg version="1.0" xmlns="http://www.w3.org/2000/svg"
 width="3888.000000pt" height="728.000000pt" viewBox="0 0 3888.000000 728.000000"
 preserveAspectRatio="xMidYMid meet">

<g transform="translate(0.000000,728.000000) scale(0.100000,-0.100000)"
fill="#000000" stroke="none">
<path d="M34605 5764 c-193 -47 -330 -225 -329 -429 1 -222 152 -400 371 -437
234 -39 468 137 503 379 20 141 -22 265 -125 369 -114 115 -261 156 -420 118z"/>
<path d="M3300 5544 c-214 -29 -547 -80 -655 -99 -44 -8 -134 -24 -200 -36
-613 -108 -1570 -340 -1667 -404 -21 -14 -51 -49 -68 -78 -46 -78 -40 -131 53
-492 88 -342 91 -350 126 -388 68 -75 120 -75 378 2 597 178 1361 356 1955
456 369 62 498 83 563 91 95 13 154 61 168 139 8 43 -4 92 -58 240 -25 72 -66
184 -90 250 -82 229 -86 239 -129 280 -45 44 -100 66 -162 64 -22 0 -118 -12
-214 -25z"/>
<path d="M21925 5533 c-11 -2 -67 -13 -125 -24 -184 -36 -481 -148 -580 -219
l-30 -21 0 -1855 0 -1854 430 0 430 0 0 1990 0 1990 -52 -1 c-29 -1 -62 -3
-73 -6z"/>
<path d="M31610 5525 c-209 -35 -485 -132 -632 -221 l-58 -35 0 -1775 c0 -976
1 -1774 3 -1774 2 0 50 -18 108 -39 187 -71 406 -120 704 -157 201 -26 629
-26 775 0 604 104 1005 432 1184 967 109 325 131 757 56 1099 -95 430 -338
722 -704 844 -187 62 -459 84 -632 51 -202 -39 -414 -138 -580 -271 -23 -18
-44 -30 -48 -27 -3 4 -6 309 -6 680 l0 673 -47 -1 c-27 -1 -82 -7 -123 -14z
m777 -1766 c322 -44 493 -209 543 -524 22 -135 14 -344 -16 -470 -72 -298
-235 -480 -494 -552 -104 -28 -461 -21 -617 13 l-23 4 0 720 0 720 23 14 c33
22 148 56 235 71 97 16 247 18 349 4z"/>
<path d="M6690 5380 c-212 -21 -299 -31 -534 -65 -94 -14 -173 -25 -178 -25
-4 0 -8 -839 -8 -1865 l0 -1866 823 3 c909 4 869 2 1111 73 448 131 781 435
878 800 30 115 37 351 13 483 -63 354 -264 584 -622 712 -51 18 -93 34 -93 36
0 3 25 15 55 28 355 157 525 505 441 903 -89 417 -492 711 -1081 788 -160 21
-555 18 -805 -5z m686 -719 c164 -34 261 -98 321 -213 26 -50 28 -60 28 -178
0 -117 -2 -128 -28 -178 -55 -105 -147 -167 -291 -196 -56 -12 -137 -16 -321
-16 l-245 0 0 384 0 384 52 7 c204 28 368 30 484 6z m179 -1529 c199 -55 292
-153 318 -337 28 -192 -56 -358 -220 -436 -119 -57 -212 -69 -530 -69 l-283 0
0 428 c0 236 3 432 8 436 4 5 149 6 322 3 271 -4 325 -8 385 -25z"/>
<path d="M16600 4500 c-576 -54 -1020 -332 -1245 -779 -118 -235 -178 -582
-155 -894 30 -406 153 -703 389 -937 359 -357 916 -473 1576 -327 79 18 231
64 318 97 65 24 65 25 41 128 -8 37 -19 85 -25 107 -5 22 -30 135 -55 250 -25
116 -49 214 -54 219 -5 4 -43 -3 -87 -17 -177 -57 -317 -77 -491 -71 -399 14
-625 187 -693 529 -21 104 -18 341 4 440 60 262 237 438 502 499 162 38 322
41 490 10 168 -30 148 -34 198 34 54 74 126 212 162 312 33 91 76 292 65 303
-14 15 -170 48 -366 77 -149 22 -445 33 -574 20z"/>
<path d="M19065 4504 c-558 -55 -963 -312 -1185 -752 -107 -213 -160 -459
-160 -746 0 -476 138 -837 426 -1116 196 -189 429 -303 749 -366 127 -25 490
-25 625 0 537 99 906 399 1078 876 72 201 95 343 95 600 1 220 -12 321 -60
495 -102 371 -357 688 -688 853 -96 48 -290 109 -415 132 -110 19 -373 33
-465 24z m342 -773 c72 -22 169 -75 217 -119 89 -83 162 -227 193 -381 19 -94
21 -328 4 -431 -45 -278 -186 -456 -416 -526 -87 -27 -318 -26 -395 0 -111 38
-165 70 -235 141 -145 145 -204 346 -192 650 8 193 40 308 122 435 52 79 101
127 180 175 56 33 152 68 220 79 64 10 235 -3 302 -23z"/>
<path d="M23845 4500 c-284 -30 -552 -129 -746 -274 -277 -209 -452 -494 -531
-871 -19 -86 -22 -135 -22 -345 -1 -217 2 -258 22 -357 125 -621 516 -1005
1147 -1129 127 -25 490 -25 625 0 223 41 408 112 577 221 106 69 277 238 346
343 180 271 267 609 254 982 -26 703 -398 1207 -1022 1380 -160 44 -477 69
-650 50z m380 -769 c196 -58 344 -221 399 -437 39 -152 43 -382 9 -539 -68
-322 -255 -487 -568 -502 -422 -20 -665 254 -665 752 0 245 64 443 186 574 81
87 211 154 339 175 67 10 231 -2 300 -23z"/>
<path d="M10145 4485 c-160 -16 -271 -37 -442 -81 -141 -36 -391 -118 -404
-131 -12 -12 55 -213 106 -318 52 -107 91 -156 152 -192 79 -46 104 -46 378
-8 430 60 601 56 729 -19 55 -32 97 -87 126 -164 23 -61 47 -208 36 -219 -4
-4 -80 -11 -169 -15 -454 -22 -846 -109 -1087 -241 -178 -97 -312 -231 -386
-383 -47 -99 -70 -181 -85 -312 -28 -244 40 -461 190 -611 203 -203 536 -304
976 -295 394 8 689 50 953 136 133 43 327 136 405 193 l47 35 0 805 c0 507 -4
841 -11 902 -32 289 -149 526 -332 671 -161 128 -383 210 -662 242 -144 17
-379 19 -520 5z m685 -1944 l0 -248 -37 -25 c-146 -96 -393 -139 -611 -106
-163 24 -248 105 -260 244 -7 87 18 155 78 215 114 114 316 167 643 168 l187
1 0 -249z"/>
<path d="M13290 4484 c-234 -27 -467 -79 -670 -149 -104 -36 -364 -159 -407
-193 l-22 -17 -3 -1283 -3 -1282 432 0 433 0 2 1082 3 1082 30 8 c56 17 230
38 315 38 290 0 474 -102 543 -300 9 -26 12 -270 15 -972 l2 -938 431 0 430 0
-3 1098 c-3 1090 -4 1097 -25 1164 -42 132 -105 237 -199 332 -176 176 -414
283 -735 330 -131 20 -407 19 -569 0z"/>
<path d="M26960 4480 c-310 -41 -567 -117 -811 -239 -101 -51 -189 -108 -189
-123 0 -7 -3 -586 -7 -1285 l-6 -1273 431 0 432 0 2 1082 3 1082 30 8 c55 16
239 38 317 38 164 0 316 -39 401 -104 51 -39 103 -113 130 -183 l22 -58 3
-932 3 -933 424 0 425 0 -1 893 c0 512 -5 926 -11 972 -9 74 -36 197 -53 237
-20 50 293 117 490 104 250 -15 393 -103 459 -283 21 -57 21 -70 24 -991 l3
-932 425 0 425 0 -3 1103 -4 1102 -21 69 c-51 158 -128 284 -235 381 -335 304
-917 370 -1480 169 -116 -42 -313 -135 -370 -175 -14 -11 -29 -19 -33 -19 -4
0 -43 26 -88 59 -183 131 -350 198 -579 235 -131 21 -384 19 -558 -4z"/>
<path d="M34505 4485 c-84 -15 -183 -44 -207 -59 -17 -10 -18 -86 -18 -1438
l0 -1428 435 0 435 0 0 1428 0 1429 -22 11 c-132 64 -435 92 -623 57z"/>
<path d="M36720 4493 c-336 -30 -610 -93 -925 -213 l-25 -9 50 -145 c101 -290
197 -399 354 -398 34 0 129 10 211 22 263 38 377 49 500 45 198 -5 304 -55
367 -171 33 -62 60 -176 56 -234 l-3 -45 -155 -7 c-414 -18 -817 -101 -1040
-213 -364 -183 -530 -441 -530 -827 0 -204 55 -356 176 -487 205 -221 540
-326 1004 -315 592 15 1009 111 1310 304 l80 52 0 843 c0 796 -1 849 -20 956
-86 497 -407 767 -985 830 -99 11 -358 18 -425 12z m590 -1952 c0 -284 8 -261
-100 -309 -138 -62 -293 -89 -458 -78 -241 16 -343 96 -344 271 0 51 6 86 20
118 49 110 187 189 402 228 59 11 455 28 473 21 4 -2 7 -115 7 -251z"/>
<path d="M4210 4149 c-523 -69 -1076 -168 -1530 -274 -30 -7 -86 -20 -125 -28
-38 -9 -133 -32 -210 -52 -754 -194 -1397 -411 -2053 -692 -183 -78 -208 -94
-245 -155 -46 -74 -46 -137 -4 -358 20 -102 52 -265 70 -363 37 -189 47 -214
107 -255 55 -37 95 -30 269 47 1059 472 2148 812 3396 1062 83 17 186 36 230
44 44 8 170 30 279 49 214 37 238 46 268 107 33 63 24 109 -78 421 -104 316
-117 348 -160 392 -56 55 -109 69 -214 55z"/>
<path d="M4030 2589 c-461 -104 -1160 -286 -1500 -388 -52 -16 -129 -39 -170
-51 -342 -101 -746 -239 -789 -270 -54 -40 -84 -100 -84 -170 0 -79 175 -713
209 -758 67 -87 168 -96 344 -32 226 82 640 221 1045 350 232 74 753 226 980
285 55 15 197 51 315 81 228 58 250 69 276 131 16 38 18 98 5 139 -6 16 -33
103 -61 194 -127 408 -131 417 -168 461 -41 48 -101 79 -152 78 -19 -1 -132
-23 -250 -50z"/>
</g>
</svg>
